<?xml version="1.0" standalone="no"?>
<!DOCTYPE svg PUBLIC "-//W3C//DTD SVG 1.1//EN" "http://www.w3.org/Graphics/SVG/1.1/DTD/svg11.dtd" >
<!--
2013-9-30: Created.
-->
<svg>
<metadata>
Created by iconfont
</metadata>
<defs>

<font id="iconfont" horiz-adv-x="1024" >
  <font-face
    font-family="iconfont"
    font-weight="500"
    font-stretch="normal"
    units-per-em="1024"
    ascent="896"
    descent="-128"
  />
    <missing-glyph />
    
    <glyph glyph-name="success" unicode="&#58902;" d="M510.545 783.78c-267.043 0-483.521-216.477-483.521-483.52s216.479-483.521 483.521-483.521 483.52 216.479 483.52 483.521S777.588 783.78 510.545 783.78zM776.855 404.145l-315.37-315.37c-9.763-9.763-22.559-14.645-35.355-14.645-12.796 0-25.592 4.882-35.355 14.645l-176.13 176.13c-19.526 19.525-19.526 51.184 0 70.71 19.526 19.526 51.184 19.527 70.711 0L426.13 194.841l280.015 280.015c19.527 19.526 51.184 19.526 70.711 0C796.382 455.329 796.382 423.671 776.855 404.145z"  horiz-adv-x="1024" />

    
    <glyph glyph-name="error-filling" unicode="&#58903;" d="M512 384v0 0zM512 883.858c-276.064 0-499.858-223.795-499.858-499.858s223.794-499.858 499.858-499.858 499.858 223.794 499.858 499.858-223.794 499.858-499.858 499.858zM789.168 179.19l-72.359-72.359-204.809 204.81-204.81-204.809-72.359 72.359 204.81 204.81-204.809 204.809 72.359 72.359 204.81-204.81 204.81 204.81 72.359-72.359-204.811-204.81 204.809-204.81z"  horiz-adv-x="1024" />

    
    <glyph glyph-name="arrow" unicode="&#58882;" d="M624.576 896 544.128 815.488 976.192 383.968 544.128-47.488 624.576-128 1136.096 383.968Z"  horiz-adv-x="1152" />

    
    <glyph glyph-name="back" unicode="&#58883;" d="M254.555203 384 642.784245 778.519929 525.695473 895.9699 15.11017 384 525.695473-127.9699 642.784245-10.519929Z"  horiz-adv-x="1084" />

    
    <glyph glyph-name="save" unicode="&#59072;" d="M306.176 346.624l1.024-1.024 173.568-152.576c19.968-17.92 50.176-17.408 70.144 0.512l168.448 152.576c20.992 19.968 22.016 53.248 2.048 74.24-19.456 20.48-51.712 22.016-72.704 3.584l-83.456-75.264V823.808c0 29.184-23.552 52.736-52.736 52.736-29.184 0-52.736-23.552-52.736-52.736v-472.064L376.32 424.96c-21.504 19.456-54.784 17.408-74.24-4.096-19.456-21.504-17.92-54.784 4.096-74.24zM969.216 267.776c-30.208 0-54.784-24.576-54.784-54.784v-211.968H109.056v211.968c0 30.208-24.576 54.784-54.784 54.784S0 243.2 0 212.992V-5.12c0-56.832 49.664-102.912 110.592-102.912h802.816c60.928 0 110.592 46.08 110.592 102.912v218.112c0 30.208-24.576 54.784-54.784 54.784z"  horiz-adv-x="1024" />

    
    <glyph glyph-name="reload-" unicode="&#59475;" d="M351.08864 98.44736A326.69696 326.69696 0 0 1 512 56.32c180.98176 0 327.68 146.69824 327.68 327.68a61.44 61.44 0 0 0 122.88 0c0-248.832-201.728-450.56-450.56-450.56a449.26976 449.26976 0 0 0-250.1632 75.75552l-69.69344-69.69344c-8.35584-8.35584-22.2208-8.02816-30.96576 0.7168a22.97856 22.97856 0 0 0-6.7584 15.09376l-11.01824 231.95648a31.06816 31.06816 0 0 0 32.84992 32.84992l231.95648-11.03872A23.1424 23.1424 0 0 0 430.08 186.1632c0-5.61152-2.17088-10.91584-6.06208-14.78656l-72.9088-72.9088z m321.82272 571.10528A326.69696 326.69696 0 0 1 512 711.68C331.01824 711.68 184.32 564.98176 184.32 384a61.44 61.44 0 0 0-122.88 0C61.44 632.832 263.168 834.56 512 834.56c90.86976 0 177.37728-27.09504 250.1632-75.75552l69.69344 69.69344c8.35584 8.35584 22.2208 8.02816 30.96576-0.7168 4.05504-4.07552 6.47168-9.46176 6.7584-15.09376l11.01824-231.95648a31.06816 31.06816 0 0 0-32.84992-32.84992l-231.95648 11.03872A23.1424 23.1424 0 0 0 593.92 581.8368c0 5.61152 2.17088 10.91584 6.06208 14.78656l72.9088 72.9088z"  horiz-adv-x="1024" />

    
    <glyph glyph-name="warning" unicode="&#58904;" d="M1003.008 83.968L614.7584 797.4912C589.568 844.2368 551.8848 870.4 511.4368 870.4c-40.448 0-77.568-26.6752-103.2192-73.4208L20.9408 83.9168c-25.088-46.1312-27.8528-93.44-7.0656-129.536 20.736-36.1984 62.2592-56.7808 113.6128-56.7808h769.024c51.3536 0 92.8768 20.5824 113.664 56.7296 20.736 36.1472 17.9712 82.8928-7.168 129.5872zM512 647.3216c20.224 0 36.608-16.6912 36.608-37.2736v-337.0496c0-20.5824-16.384-37.2736-36.608-37.2736a36.9152 36.9152 0 0 0-36.608 37.2736V610.0992c0 20.0192 16.384 37.2736 36.608 37.2736z m0-595.1488c-31.6928 0-56.832 26.112-56.832 58.368 0 32.256 25.7024 58.4192 56.832 58.4192 31.6928 0 56.832-26.112 56.832-58.368 0-32.256-25.7024-58.4192-56.832-58.4192z"  horiz-adv-x="1024" />

    
    <glyph glyph-name="copy" unicode="&#58918;" d="M875.605333 658.218667L661.76 874.666667a76.8 76.8 0 0 1-14.72 11.52c-1.365333 0.768-2.773333 1.578667-4.266667 2.261333-0.896 0.512-1.92 0.896-2.816 1.28A71.552 71.552 0 0 1 610.986667 896H329.984c-39.765333 0-72.96-32.213333-72.96-72.021333V768H201.472c-39.808 0-72.533333-32.597333-72.533333-72.405333v-752c0-39.808 32.725333-71.594667 72.533333-71.594667h494.976c39.808 0 71.509333 31.786667 71.509333 71.594667V0h57.002667c39.808 0 70.997333 32.213333 70.997333 72.021333V607.488c0 19.029333-6.997333 37.205333-20.394666 50.730667z m-227.584 127.402666l136.789334-137.6h-136.789334V785.621333z m48-841.642666H200.96V695.978667h55.978667v-624c0-39.765333 33.237333-71.978667 73.002666-71.978667h366.037334v-56.021333z m128 128H328.96V823.978667H576v-176c0-39.765333 33.194667-71.978667 72.96-71.978667h175.061333v-504.021333z m-183.04 404.053333A35.968 35.968 0 0 1 605.013333 512H420.992a35.968 35.968 0 1 1 0-72.021333h184.021333a35.968 35.968 0 0 1 35.968 36.010666z m128-128A35.968 35.968 0 0 1 733.013333 384H420.992a35.968 35.968 0 1 1 0-72.021333h312.021333a35.968 35.968 0 0 1 35.968 36.010666z m-64-128A35.968 35.968 0 0 1 669.013333 256H420.992a35.968 35.968 0 1 1 0-72.021333h248.021333a35.968 35.968 0 0 1 35.968 36.010666z"  horiz-adv-x="1024" />

    
    <glyph glyph-name="forms" unicode="&#58905;" d="M817.717-107.789c-5.628 0-10.233 4.605-10.233 10.233v622.139c0 5.628-4.605 10.233-10.233 10.233h-61.398c-5.628 0-10.233-4.605-10.233-10.233v-622.139c0-5.628-4.605-10.233-10.233-10.233h-88.777c-5.628 0-10.233 4.605-10.233 10.233v758.744c0 5.628-4.605 10.233-10.233 10.233h-61.398c-5.628 0-10.233-4.605-10.233-10.233v-758.744c0-5.628-4.605-10.233-10.233-10.233h-90.286c-5.628 0-10.233 4.605-10.233 10.233l0 502.418c0 5.628-4.605 10.233-10.233 10.233h-61.398c-5.628 0-10.233-4.605-10.233-10.233v-502.419c0-5.628-4.605-10.233-10.233-10.233h-62.416c-5.628 0-10.233 4.605-10.233 10.233l0 375.324c0 5.628-4.605 10.233-10.233 10.233h-61.398c-5.628 0-10.233-4.605-10.233-10.233v-375.323c0-5.628-4.605-10.233-10.233-10.233h-92.693c-5.628 0-10.233-4.605-10.233-10.233v-30.699c0-5.628 4.605-10.233 10.233-10.233h875.005c5.628 0 10.233 4.605 10.233 10.233v30.699c0 5.628-4.605 10.233-10.233 10.233h-131.51z"  horiz-adv-x="1024" />

    
    <glyph glyph-name="icon" unicode="&#58899;" d="M192.252117 511.968533l319.765791 0 0-63.893192-319.765791 0 0 63.893192ZM190.205505 255.216915l639.444601 0 0-63.87682-639.444601 0 0 63.87682ZM957.867889 786.902796l-364.32533-364.32533-44.861948 44.861948 364.32533 364.32533 44.861948-44.861948ZM895.910205 576.008059 895.910205 0.430044 128.269897 0.430044 128.269897 703.9111 639.63647 704.017524 639.63647 768.016117 64.344982 768.016117 64.005244-63.591061 959.738929-63.591061 959.738929 576.008059Z"  horiz-adv-x="1024" />

    
    <glyph glyph-name="yidiandiantubiao11" unicode="&#58884;" d="M760.564315 270.257261c16.995851 0 29.742739 12.746888 29.742739 29.742739s-12.746888 29.742739-29.742739 29.742739L263.435685 329.742739c-16.995851 0-29.742739-12.746888-29.742739-29.742739s12.746888-29.742739 29.742739-29.742739L760.564315 270.257261z"  horiz-adv-x="1024" />

    
    <glyph glyph-name="user4" unicode="&#59570;" d="M320 704A6 6 10800 1 0 704 704 6 6 10800 1 0 320 704zM768.064 448l-0.16 0-35.264 0-199.104-404.256L608 416l-96 96-96-96 74.464-372.256L291.36 448l-35.264 0-0.16 0C128 448 128 362.016 128 256l0-320 768 0L896 256C896 362.016 896 448 768.064 448z"  horiz-adv-x="1024" />

    
    <glyph glyph-name="correct" unicode="&#58992;" d="M313.134255 420.603663l121.552403-241.612827c0 0 197.417255 490.988454 508.857427 654.643768-7.575536-116.885104-37.969776-218.207767 15.152095-342.936513-136.700405-31.166837-417.765779-381.946992-508.929058-553.383526C320.714907 100.991368 168.720168 225.720114 62.396607 264.729569L313.134255 420.603663 313.134255 420.603663 313.134255 420.603663zM313.134255 420.603663"  horiz-adv-x="1024" />

    
    <glyph glyph-name="plus" unicode="&#58919;" d="M512-42.667c-235.264 0-426.667 191.424-426.667 426.645 0 235.264 191.403 426.688 426.667 426.688 235.243 0 426.667-191.424 426.667-426.688 0-235.221-191.424-426.645-426.667-426.645zM512 768c-211.733 0-384-172.267-384-384.021 0-211.733 172.267-383.979 384-383.979s384 172.245 384 383.979c0 211.755-172.267 384.021-384 384.021zM490.667 618.667l42.667 0 0-469.333-42.667 0 0 469.333zM277.333 405.333l469.333 0 0-42.667-469.333 0 0 42.667z"  horiz-adv-x="1024" />

    
    <glyph glyph-name="android" unicode="&#58894;" d="M615.878882 718.505493l42.303478 61.521169c1.811252 2.619664 1.146103 6.252401-1.473561 8.063653l-1.054005 0.726547c-2.619664 1.821485-6.231935 1.146103-8.043187-1.473561l-43.521213-63.291488c-28.427446 12.361539-60.139705 19.268856-93.601818 19.268856-31.753191 0-61.950957-6.221702-89.232301-17.426905l-41.587164 60.477396c-1.801019 2.619664-5.423523 3.284813-8.043187 1.473561l-1.054005-0.726547c-2.619664-1.811252-3.284813-5.443989-1.483794-8.073886l40.215934-58.461483c-63.23009-30.300097-108.664885-88.075964-117.915573-156.299789l438.20018 0C720.552873 630.982114 676.919097 687.703977 615.878882 718.505493zM418.217057 630.378363c-12.054547 0-21.837354 9.813506-21.837354 21.908986 0 12.095479 9.782807 21.898753 21.837354 21.898753 12.06478 0 21.837354-9.803273 21.837354-21.898753C440.054411 640.19187 430.281837 630.378363 418.217057 630.378363zM606.710059 630.378363c-12.054547 0-21.837354 9.813506-21.837354 21.908986 0 12.095479 9.782807 21.898753 21.837354 21.898753 12.06478 0 21.837354-9.803273 21.837354-21.898753C628.547413 640.19187 618.774839 630.378363 606.710059 630.378363zM260.904195 476.493577l0-179.446975c0-30.760584-19.596314-55.933917-43.562145-55.933917l-9.680477 0c-23.955598 0-43.562145 25.173332-43.562145 55.933917l0 179.446975c0 30.760584 19.606547 55.923684 43.562145 55.923684l9.680477 0C241.307881 532.417261 260.904195 507.254162 260.904195 476.493577zM859.896478 475.429339l0-179.446975c0-30.770817-19.596314-55.933917-43.562145-55.933917l-9.680477 0c-23.955598 0-43.562145 25.163099-43.562145 55.933917l0 179.446975c0 30.760584 19.606547 55.923684 43.562145 55.923684l9.680477 0C840.300164 531.353023 859.896478 506.189923 859.896478 475.429339zM732.934878 535.169955l0-354.074178c0-24.579815-20.046568-44.687782-44.554752-44.687782l-36.746926 0 0-102.320387c0-30.760584-19.606547-55.923684-43.562145-55.923684l-9.680477 0c-23.955598 0-43.562145 25.163099-43.562145 55.923684l0 102.320387-81.864496 0 0-101.143585c0-30.760584-19.596314-55.933917-43.562145-55.933917l-9.680477 0c-23.955598 0-43.562145 25.173332-43.562145 55.933917l0 101.143585-40.062438 0c-24.508183 0-44.554752 20.107967-44.554752 44.687782l0 354.074178L732.934878 535.169955z"  horiz-adv-x="1024" />

    
    <glyph glyph-name="yonghu1" unicode="&#58968;" d="M102.7328-27.89888c-16.69632 0-30.27968 13.48096-30.27968 30.04416l0 73.63584c0 73.54368 22.2464 144.35328 64.33792 204.75904 41.10336 58.98752 98.16576 104.20224 165.02272 130.7392l11.00288 4.37248-9.33376 7.28576C250.88 463.98976 220.70784 525.3376 220.70784 591.25248c0 118.07232 96.72192 214.12864 215.6032 214.12864 118.87616 0 215.59808-96.06144 215.59808-214.12864 0-65.91488-30.17216-127.26272-82.76992-168.32l-9.33376-7.28576 11.00288-4.37248c66.86208-26.53696 123.92448-71.73632 165.02272-130.71872 42.0864-60.40576 64.3328-131.22048 64.3328-204.77952l0-73.63584c0-16.5632-13.58336-30.03904-30.27968-30.03904L102.7328-27.89888 102.7328-27.89888zM436.352 377.11872c-167.25504 0-303.32928-135.18336-303.32928-301.3376l0-43.60192 606.58688 0 0 43.60192C739.60448 241.93536 603.56608 377.11872 436.352 377.11872L436.352 377.11872zM436.31616 745.30816c-85.48864 0-155.03872-69.10976-155.03872-154.0608 0-84.94592 69.55008-154.05568 155.03872-154.05568 85.48352 0 155.0336 69.10976 155.0336 154.05568C591.34976 676.1984 521.79968 745.30816 436.31616 745.30816L436.31616 745.30816zM858.06592 82.56512c-0.36352 20.15232-2.37056 40.28928-5.96992 60.06272l35.37408 0 0 26.9312c0 104.2944-71.06048 194.95936-172.8 220.47744l-7.0144 1.664c-12.99456 4.4288-21.70368 15.68768-21.70368 28.10368 0 12.1088 8.09984 22.98368 20.6336 27.70432l0.2048 0.0768 0.19456 0.09216c42.09664 18.98496 69.29408 60.8768 69.29408 106.71616 0 49.65888-31.44192 93.48096-78.592 110.11584-7.91552 23.09632-19.49184 44.68736-34.44224 64.24064-0.60928 0.99328-1.22368 1.98144-1.83808 2.9696 97.00864-1.65888 175.43168-80.56832 175.43168-177.32608 0-43.89376-16.49664-86.13376-46.44352-118.9376l-5.97504-6.54848 7.8848-4.06016c96.05632-49.41824 155.7248-147.23584 155.71968-255.28832l0-56.96c0-16.55808-13.57824-30.0288-30.27456-30.0288L858.06592 82.57024 858.06592 82.56512z"  horiz-adv-x="1025" />

    
    <glyph glyph-name="search" unicode="&#58978;" d="M999.592902-95.251373L712.326619 203.498602c73.271365 73.484026 118.664812 174.787972 118.664812 286.512304 0 223.873986-182.115108 405.989094-405.989094 405.989094s-405.989094-182.115108-405.989094-405.989094 182.115108-405.989094 405.989094-405.989095c98.268694 0 188.456271 35.127723 258.750383 93.416158l287.962264-299.484622a19.294148 19.294148 0 0 1 27.336599-0.541319 19.332814 19.332814 0 0 1 0.541319 27.336599zM425.002337 122.687439c-202.549892 0-367.323466 164.773574-367.323466 367.323467s164.773574 367.323466 367.323466 367.323466 367.323466-164.773574 367.323466-367.323466-164.792907-367.323466-367.323466-367.323467z"  horiz-adv-x="1024" />

    
    <glyph glyph-name="close" unicode="&#58951;" d="M156.067114 678.062837l61.86318 61.86318 649.988128-649.988128-61.86318-61.86318-649.988128 649.988128ZM806.062428 739.932886l61.86318-61.86318-649.988128-649.988128-61.86318 61.86318 649.988128 649.988128Z"  horiz-adv-x="1024" />

    
    <glyph glyph-name="date" unicode="&#58885;" d="M970.507463-122.905473H49.671642C25.472637-122.905473 0-92.338308 0-70.686567V763.542289C0 790.288557 29.293532 806.845771 49.671642 806.845771H152.835821c14.00995 0 25.472637-11.462687 25.472637-25.472637s-11.462687-25.472637-25.472637-25.472636H50.945274v-824.039801l3.820895-3.820896h910.646766c1.273632 1.273632 2.547264 2.547264 2.547264 3.820896V259.18408c0 14.00995 11.462687 25.472637 25.472637 25.472636s25.472637-11.462687 25.472637-25.472636v-329.870647c0-22.925373-24.199005-52.218905-48.39801-52.218906zM993.432836 462.965174c-14.00995 0-25.472637 11.462687-25.472637 25.472637V755.900498h-114.626866c-14.00995 0-25.472637 11.462687-25.472636 25.472636s11.462687 25.472637 25.472636 25.472637h117.17413C990.885572 806.845771 1018.905473 790.288557 1018.905473 763.542289V488.437811c0-14.00995-11.462687-25.472637-25.472637-25.472637zM636.81592 755.900498H356.616915c-14.00995 0-25.472637 11.462687-25.472636 25.472636s11.462687 25.472637 25.472636 25.472637h280.199005c14.00995 0 25.472637-11.462687 25.472637-25.472637s-11.462687-25.472637-25.472637-25.472636zM254.726368 679.482587c-14.00995 0-25.472637 11.462687-25.472637 25.472637V870.527363c0 14.00995 11.462687 25.472637 25.472637 25.472637s25.472637-11.462687 25.472637-25.472637v-165.572139c0-14.00995-11.462687-25.472637-25.472637-25.472637zM751.442786 679.482587c-14.00995 0-25.472637 11.462687-25.472637 25.472637V870.527363c0 14.00995 11.462687 25.472637 25.472637 25.472637s25.472637-11.462687 25.472637-25.472637v-165.572139c0-14.00995-11.462687-25.472637-25.472637-25.472637zM993.432836 577.59204H25.472637c-14.00995 0-25.472637 11.462687-25.472637 25.472637s11.462687 25.472637 25.472637 25.472636h967.960199c14.00995 0 25.472637-11.462687 25.472637-25.472636s-11.462687-25.472637-25.472637-25.472637zM287.840796 322.865672h-47.124378c0 50.945274 16.557214 89.154229 49.671642 110.80597 21.651741 14.00995 48.39801 20.378109 80.238806 20.378109 33.114428 0 61.134328-10.189055 84.059701-30.567164 22.925373-20.378109 33.114428-48.39801 33.114428-82.78607 0-30.567164-10.189055-57.313433-29.293532-77.691542-12.736318-14.00995-36.935323-30.567164-71.323383-48.39801l-39.482587-21.651741c-22.925373-12.736318-39.482587-26.746269-50.945274-42.029851-7.641791-10.189055-12.736318-19.104478-14.00995-31.840796H483.9801v-38.208955H231.800995c0 38.208955 8.915423 64.955224 25.472637 90.427861 14.00995 21.651741 35.661692 39.482587 63.681592 56.039801l49.671642 28.0199c25.472637 15.283582 42.029851 25.472637 49.671641 33.114428 12.736318 14.00995 19.104478 31.840796 19.104478 53.492537 0 17.830846-5.094527 33.114428-16.557214 44.577115-14.00995 15.283582-33.114428 22.925373-58.587065 22.925373-24.199005 0-42.029851-5.094527-54.766169-19.104478-14.00995-15.283582-21.651741-42.029851-21.651741-67.502487zM778.189055 355.9801c0-24.199005-6.368159-43.303483-17.830846-57.313433-6.368159-7.641791-16.557214-15.283582-30.567164-22.925373 22.925373-10.189055 39.482587-24.199005 49.671642-43.303483 7.641791-14.00995 11.462687-30.567164 11.462686-48.39801 0-33.114428-10.189055-59.860697-30.567164-81.512438-22.925373-24.199005-54.766169-36.935323-96.79602-36.935323-14.00995 0-28.0199 1.273632-42.029851 5.094527-19.104478 5.094527-35.661692 12.736318-48.39801 22.925373-16.557214 12.736318-28.0199 29.293532-33.114428 49.671642-3.820896 10.189055-5.094527 24.199005-5.094527 39.482587 0 22.925373 5.094527 40.756219 16.557214 56.039801 11.462687 15.283582 26.746269 26.746269 47.124378 35.661692-34.38806 12.736318-50.945274 36.935323-50.945273 73.870646 0 25.472637 7.641791 48.39801 22.925373 66.228856 20.378109 24.199005 50.945274 36.935323 90.42786 36.935324 38.208955 0 68.776119-10.189055 89.154229-31.840796 19.104478-16.557214 28.0199-38.208955 28.019901-63.681592z m-114.626866-103.16418c-25.472637 0-44.577114-6.368159-57.313433-20.378109-14.00995-14.00995-20.378109-30.567164-20.378109-48.39801 0-19.104478 5.094527-35.661692 15.283582-48.39801 14.00995-17.830846 35.661692-26.746269 64.955224-26.746269 21.651741 0 38.208955 3.820896 49.671642 12.736319 16.557214 12.736318 25.472637 31.840796 25.472636 57.313433 0 24.199005-7.641791 42.029851-21.651741 54.766169-15.283582 12.736318-33.114428 19.104478-56.039801 19.104477z m-1.273632 40.756219c20.378109 0 35.661692 5.094527 48.39801 16.557214s17.830846 25.472637 17.830846 43.303483c0 14.00995-5.094527 26.746269-14.00995 36.935323-12.736318 12.736318-31.840796 20.378109-56.039801 20.37811-22.925373 0-39.482587-6.368159-49.671642-20.37811-7.641791-10.189055-12.736318-22.925373-12.736319-38.208955 0-17.830846 6.368159-31.840796 19.104478-42.029851 14.00995-11.462687 29.293532-16.557214 47.124378-16.557214z"  horiz-adv-x="1031" />

    
    <glyph glyph-name="close1" unicode="&#58922;" d="M512 830.44352c-246.90688 0-447.84128-200.81152-447.84128-447.84128S265.09312-65.23904 512-65.23904s447.83616 200.81152 447.83616 447.84128S759.02976 830.44352 512 830.44352z m0-865.76128c-230.48704 0-417.92 187.55584-417.92 417.92 0 230.48704 187.55072 418.03776 417.92 418.03776 230.48704 0 418.03776-187.5456 418.03776-417.91488 0-230.61504-187.5456-418.04288-418.03776-418.04288z m24.448 418.76992l198.5024 199.22944c6.44096 6.4512 6.44096 17.152 0 23.59808a16.45056 16.45056 0 0 1-23.48032 0l-199.4752-200.20224-199.3472 200.20224a16.44544 16.44544 0 0 1-23.4752 0 16.80896 16.80896 0 0 1 0-23.59808l198.5024-199.22944-198.5024-199.35232a16.80896 16.80896 0 0 1 0-23.59296 16.45056 16.45056 0 0 1 23.4752 0L512 360.70912l199.3472-200.20224a16.45056 16.45056 0 0 1 23.4752 0 16.81408 16.81408 0 0 1 0 23.59296l-198.3744 199.35232z"  horiz-adv-x="1024" />

    
    <glyph glyph-name="log-out" unicode="&#59032;" d="M950.71 374.214L757.935 566.989c-11.019 11.019-29.861 3.215-29.861-12.369v-115.928H412.098c-28.821 0-52.188-32.546-52.188-72.687s23.367-72.687 52.188-72.687h315.977V169.07c0-15.584 18.841-23.388 29.861-12.369L950.71 349.477c6.831 6.831 6.831 17.906 0 24.737zM547.856 96.68H183.095l0.168 574.639h364.593v-201.124h114.928V671.32c0 63.37-51.558 114.928-114.928 114.928H183.095c-63.37 0-114.928-51.558-114.928-114.928v-574.64c0-63.37 51.558-114.928 114.928-114.928h364.761c63.37 0 114.928 51.558 114.928 114.928V261.816H547.856V96.68zM183.081 671.32l0.014 57.464v-57.464h-0.014z"  horiz-adv-x="1024" />

    
    <glyph glyph-name="IOS" unicode="&#59020;" d="M737.007 358.636c-1.092 104.007 84.833 153.888 88.595 156.316-48.181 70.512-123.305 80.221-150.126 81.435-63.958 6.432-124.761-37.622-157.165-37.622-32.404 0-82.405 36.652-135.441 35.681-69.663-1.092-133.863-40.535-169.787-102.915-72.453-125.732-18.569-311.903 52.065-413.727 34.467-49.881 75.609-105.828 129.616-103.887 51.943 2.063 71.604 33.618 134.47 33.618s80.464-33.618 135.563-32.646c55.948 1.092 91.387 50.851 125.611 100.852 39.564 57.89 55.948 113.959 56.798 116.63-1.214 0.729-109.105 41.991-110.197 166.267zM633.605 663.742c28.641 34.71 47.938 83.012 42.72 131.072-41.264-1.699-91.265-27.428-120.878-62.138-26.457-30.826-49.881-79.978-43.569-127.067 45.997-3.641 93.085 23.423 121.727 58.132z"  horiz-adv-x="1024" />

    
    <glyph glyph-name="web__gonggaoliebiao" unicode="&#58937;" d="M113.682 531.649v-595.33h797.404V531.65H113.682z m772.803-570.75H138.252V507.08h748.234V-39.1zM784.52 548.149h47.002L568.635 758.076l-18.164-22.691zM474.293 735.385l-18.15 22.69-262.91-209.924h47.001z m38.089 11.346c23.167 0 41.952 18.78 41.952 41.976 0 23.172-18.785 41.971-41.952 41.971-23.186 0-41.985-18.799-41.985-41.97 0-23.196 18.799-41.977 41.985-41.977zM176.634 467.105h671.495v-461.671H176.634v461.67z"  horiz-adv-x="1024" />

    
    <glyph glyph-name="jilu" unicode="&#58934;" d="M512 831.5C264.9 831.5 64.5 631.1 64.5 384S264.9-63.5 512-63.5 959.5 136.9 959.5 384 759.1 831.5 512 831.5z m0-831.1c-211.5 0-383.6 172.1-383.6 383.6S300.5 767.6 512 767.6 895.6 595.5 895.6 384 723.5 0.4 512 0.4zM512 639.7h-63.9V320.1h319.6V384H512z"  horiz-adv-x="1024" />

    
    <glyph glyph-name="daohang-shujufenxi" unicode="&#58909;" d="M944 816v-615H80V816h864m40 80H40C17.909 896 0 878.091 0 856v-695c0-22.092 17.909-40 40-40h944c22.092 0 40 17.908 40 40V856c0 22.091-17.908 40-40 40zM472 186h80v-282.566h-80zM894-127.91700000000003H114c-22.091 0-40 17.908-40 40s17.909 40 40 40h780c22.092 0 40-17.908 40-40s-17.908-40-40-40zM248 290c-22.091 0-40 17.908-40 40V529c0 22.091 17.909 40 40 40s40-17.909 40-40v-199c0-22.092-17.909-40-40-40zM507 290c-22.091 0-40 17.908-40 40V740c0 22.091 17.909 40 40 40 22.092 0 40-17.909 40-40v-410c0-22.092-17.908-40-40-40zM766 290c-22.092 0-40 17.908-40 40V628c0 22.091 17.908 40 40 40s40-17.909 40-40v-298c0-22.092-17.908-40-40-40z"  horiz-adv-x="1024" />

    
    <glyph glyph-name="jilu1" unicode="&#58895;" d="M846.5-94h-669c-40.3 0-73 32.7-73 73V789c0 40.3 32.7 73 73 73h669c40.3 0 73-32.7 73-73v-810c0-40.3-32.7-73-73-73z m-669 900c-9.4 0-17-7.6-17-17v-810c0-9.4 7.6-17 17-17h669c9.4 0 17 7.6 17 17V789c0 9.4-7.6 17-17 17h-669zM316.2 539.3h192v-56h-192zM316.6 667.2h256v-56h-256zM225 833.1h56v-898.2h-56zM726-1.1h-50c-40.3 0-73 32.7-73 73V538.5l98 98 98-98v-466.6c0-40.2-32.7-73-73-73z m-67 516.4v-443.4c0-9.4 7.6-17 17-17h50c9.4 0 17 7.6 17 17V515.3l-42 42-42-42z"  horiz-adv-x="1024" />

    
    <glyph glyph-name="plus1" unicode="&#59742;" d="M866.5 420H548V730.5c0 19.9-16.1 36-36 36s-36-16.1-36-36V420H164.5c-19.9 0-36-16.1-36-36s16.1-36 36-36H476v-311.5c0-19.9 16.1-36 36-36s36 16.1 36 36V348h318.5c19.9 0 36 16.1 36 36s-16.1 36-36 36z"  horiz-adv-x="1024" />

    
    <glyph glyph-name="password" unicode="&#58912;" d="M780.8 541.42H665.6v42.89c0 72.31-19.85 193.3-153.6 193.3-138.87 0-153.6-135.05-153.6-193.3v-42.89H243.2v42.89C243.2 773.75 348.79 896 512 896s268.8-122.25 268.8-311.69v-42.89z m-192-314.84c0 43.52-34.58 78.65-76.8 78.65s-76.8-35.13-76.8-78.65c0-29.46 15.4-54.47 38.44-67.82v-89.64c0-21.74 17.25-39.7 38.4-39.7s38.4 17.96 38.4 39.7v89.64c23 13.35 38.36 38.36 38.36 67.82zM896 384v-393.61c0-65.26-51.87-118.39-115.2-118.39H243.2c-63.291 0-115.2 53.13-115.2 118.39V384c0 65.22 51.87 118.39 115.2 118.39h537.6c63.33 0 115.2-53.17 115.2-118.39z"  horiz-adv-x="1024" />

    
    <glyph glyph-name="yonghuguanli" unicode="&#58880;" d="M745.427267 389.173895a323.476211 323.476211 0 0 1-160.768-467.375158L3.296741-76.584421A485.214316 485.214316 0 0 0 301.873583 429.002105a269.473684 269.473684 0 1 0 366.645895 0c26.947368-11.048421 52.655158-24.414316 76.961684-39.882105z m-62.194526-65.320421c24.414316 21.557895 53.140211 38.265263 84.776421 48.666947 17.785263-22.204632 45.109895-36.432842 75.776-36.432842s57.990737 14.228211 75.776 36.432842a242.256842 242.256842 0 0 0 85.908211-49.690947 96.848842 96.848842 0 0 1 6.359579-83.752421c15.306105-26.570105 41.283368-43.115789 69.416421-47.427369a243.604211 243.604211 0 0 0 0.053894-98.896842 96.848842 96.848842 0 0 1-69.52421-47.427368 96.848842 96.848842 0 0 1-6.25179-83.968c-24.737684-22.204632-54.056421-39.343158-86.393263-49.906527a96.848842 96.848842 0 0 1-75.883789 36.594527c-30.558316 0-57.882947-14.174316-75.668211-36.325053a242.364632 242.364632 0 0 0-89.249684 53.032421 96.794947 96.794947 0 0 1-6.898526 82.458947c-14.551579 25.330526-38.804211 41.498947-65.374316 46.726737a243.658105 243.658105 0 0 0 1.401263 102.777263 96.794947 96.794947 0 0 1 68.015158 47.157895c14.605474 25.276632 16.545684 54.379789 7.760842 79.97979z m160.606316-278.797474a97.010526 97.010526 0 1 1 0 194.021053 97.010526 97.010526 0 0 1 0-194.021053z"  horiz-adv-x="1131" />

    
    <glyph glyph-name="Minuswithcircle" unicode="&#59025;" d="M768 384c0-11.264-9.216-20.48-20.48-20.48H276.48c-11.264 0-20.48 9.216-20.48 20.48s9.216 20.48 20.48 20.48h471.04c11.264 0 20.48-9.216 20.48-20.48z m204.8 0c0-253.952-206.848-460.8-460.8-460.8S51.2 130.048 51.2 384 258.048 844.8 512 844.8s460.8-206.848 460.8-460.8z m-40.96 0C931.84 615.424 743.424 803.84 512 803.84S92.16 615.424 92.16 384s188.416-419.84 419.84-419.84 419.84 188.416 419.84 419.84z"  horiz-adv-x="1024" />

    
    <glyph glyph-name="QR-icon" unicode="&#58886;" d="M98 797.8h385v-385H98zM542.9 797.8h385v-385h-385zM98 352.8h385v-385H98zM542.9-32.2h385v385h-385v-385zM640.1 256h191.7v-191.7H640.1V256z"  horiz-adv-x="1024" />

    
    <glyph glyph-name="cz-hzb" unicode="&#59422;" d="M800 800h-64c-17.7 0-32-14.3-32-32s14.3-32 32-32h64c17.7 0 32-14.3 32-32v-672c0-17.7-14.3-32-32-32H224c-17.7 0-32 14.3-32 32V704c0 17.7 14.3 32 32 32h64c17.7 0 32 14.3 32 32s-14.3 32-32 32h-64c-53 0-96-43-96-96v-672c0-53 43-96 96-96h576c53 0 96 43 96 96V704c0 53-43 96-96 96zM384.1 704H640c17.7 0 32 14.3 32 32V800c0 17.7-14.3 32-32 32H384.1c-17.7 0-32-14.3-32-32v-64c0-17.7 14.3-32 32-32zM352 159c17.7 0 32 14.3 32 32V384c0 17.7-14.3 32-32 32s-32-14.3-32-32v-193c0-17.7 14.3-32 32-32zM480 448v-257c0-17.7 14.3-32 32-32s32 14.3 32 32V448c0 17.7-14.3 32-32 32s-32-14.3-32-32zM640 576v-385c0-17.7 14.3-32 32-32s32 14.3 32 32V576c0 17.7-14.3 32-32 32s-32-14.3-32-32z"  horiz-adv-x="1024" />

    
    <glyph glyph-name="shujuhuizong" unicode="&#58913;" d="M182.044444 366.933333a312.888889 312.888889 0 0 1 620.714667-56.888889h-364.657778V674.816A313.059556 313.059556 0 0 1 182.044444 366.990222z m312.888889-369.777777a369.777778 369.777778 0 1 0 0 739.669333V366.933333h369.891556a369.834667 369.834667 0 0 0-369.777778-369.777777zM606.549333 716.686222v-238.136889h238.136889a297.528889 297.528889 0 0 1-238.136889 238.136889z m297.130667-292.295111H552.391111V775.68a351.288889 351.288889 0 0 0 351.288889-351.288889z"  horiz-adv-x="1024" />

    
    <glyph glyph-name="chubuhuizong" unicode="&#58977;" d="M886.568421 801.684211c0 32.336842-26.947368 59.284211-59.28421 59.28421H323.368421 315.284211c-2.694737 0-2.694737-2.694737-2.694737-2.694737s-2.694737 0-2.694737-2.694737L142.821053 696.589474s-2.694737-2.694737-2.694737-5.389474v-727.578947c0-32.336842 26.947368-59.284211 59.28421-59.284211h633.263158c32.336842 0 59.284211 26.947368 59.284211 59.284211v24.252631c0 10.778947-8.084211 18.863158-18.863158 18.863158s-18.863158-8.084211-18.863158-18.863158v-24.252631c0-10.778947-10.778947-21.557895-21.557895-21.557895H196.715789c-10.778947 0-21.557895 10.778947-21.557894 21.557895v700.631579h91.621052c40.421053 0 72.757895 32.336842 72.757895 72.757894V823.242105h485.052632c10.778947 0 21.557895-10.778947 21.557894-21.557894v-619.789474c0-10.778947 8.084211-18.863158 18.863158-18.863158s18.863158 8.084211 18.863158 18.863158v619.789474z m-619.789474-99.705264H202.105263l102.4 97.010527v-59.284211c0-21.557895-16.168421-37.726316-37.726316-37.726316zM455.410526 410.947368c-10.778947 0-18.863158-8.084211-18.863158-18.863157v-51.2c0-10.778947 8.084211-18.863158 18.863158-18.863158s18.863158 8.084211 18.863158 18.863158v51.2c0 10.778947-8.084211 18.863158-18.863158 18.863157zM538.947368 491.789474c-10.778947 0-18.863158-8.084211-18.863157-18.863158v-132.042105c0-10.778947 8.084211-18.863158 18.863157-18.863158s18.863158 8.084211 18.863158 18.863158v132.042105c0 10.778947-8.084211 18.863158-18.863158 18.863158zM622.484211 451.368421c-10.778947 0-18.863158-8.084211-18.863158-18.863158v-91.621052c0-10.778947 8.084211-18.863158 18.863158-18.863158s18.863158 8.084211 18.863157 18.863158v91.621052c0 10.778947-10.778947 18.863158-18.863157 18.863158zM695.242105 553.768421c-40.421053 40.421053-97.010526 64.673684-156.294737 64.673684s-113.178947-21.557895-156.294736-64.673684c-40.421053-40.421053-64.673684-97.010526-64.673685-156.294737 0-59.284211 21.557895-113.178947 64.673685-156.294737 40.421053-40.421053 97.010526-64.673684 156.294736-64.673684 51.2 0 102.4 18.863158 140.126316 51.2l175.157895-177.852631c2.694737-2.694737 8.084211-5.389474 13.473684-5.389474s10.778947 2.694737 13.473684 5.389474c8.084211 8.084211 8.084211 18.863158 0 26.947368l-175.157894 177.852632c32.336842 40.421053 51.2 88.926316 51.2 142.821052 2.694737 59.284211-21.557895 115.873684-61.978948 156.294737zM409.6 270.821053c-35.031579 35.031579-53.894737 80.842105-53.894737 129.347368 0 48.505263 18.863158 94.315789 53.894737 129.347368s80.842105 53.894737 129.347368 53.894737c48.505263 0 94.315789-18.863158 129.347369-53.894737 35.031579-35.031579 53.894737-80.842105 53.894737-129.347368 0-48.505263-18.863158-94.315789-53.894737-129.347368-35.031579-35.031579-80.842105-53.894737-129.347369-53.894737s-94.315789 18.863158-129.347368 53.894737z"  horiz-adv-x="1024" />

    
    <glyph glyph-name="rizhizhongxin" unicode="&#58914;" d="M882.3 822.7H180.4v-96.5h0.2v-679h-0.2v-99.3h702c32.2 0 56.2 27.9 56.2 60V766c0 32.2-24 56.7-56.3 56.7z m-527-816.4H244.6v758h110.7v-758zM277.6 547.7H120.1c-26.4 0-48 21.6-48 48v22.5c0 26.4 21.6 48 48 48h157.5c26.4 0 48-21.6 48-48v-22.5c0-26.4-21.6-48-48-48zM277.6 88.2H120.1c-26.4 0-48 21.6-48 48v22.5c0 26.4 21.6 48 48 48h157.5c26.4 0 48-21.6 48-48v-22.5c0-26.4-21.6-48-48-48zM282 317.9H124.6c-26.4 0-48 21.6-48 48v22.5c0 26.4 21.6 48 48 48H282c26.4 0 48-21.6 48-48V366c0-26.5-21.6-48.1-48-48.1z"  horiz-adv-x="1024" />

    
    <glyph glyph-name="pc-fill" unicode="&#59076;" d="M928 736v-576H544v-96h224v-64H256v64h224v96H96V736z"  horiz-adv-x="1024" />

    
    <glyph glyph-name="zaixianyonghu" unicode="&#59178;" d="M739.584 320.438857A365.824 365.824 0 0 1 513.828571-54.857143H73.142857c0 242.358857 196.498286 438.857143 438.857143 438.857143 83.346286 0 161.243429-23.222857 227.584-63.561143zM512 384a219.428571 219.428571 0 1 0 0 438.857143 219.428571 219.428571 0 0 0 0-438.857143z m182.857143-146.285714h256v-73.142857h-256v73.142857z m-73.142857-109.714286h329.142857v-73.142857h-329.142857v73.142857z m-36.571429-109.714286h365.714286v-73.142857H585.142857v73.142857z"  horiz-adv-x="1024" />

    
    <glyph glyph-name="fill-correct" unicode="&#58975;" d="M902.4512 727.2704a63.274667 63.274667 0 0 1-42.769067 16.273067h-4.5056c-0.955733 0-10.9824-0.938667-26.427733-0.938667-26.4192 0-76.458667 1.834667-124.629333 13.533867-61.917867 14.4384-133.76 82.235733-154.709334 95.7696C539.3664 858.282667 526.634667 861.866667 514.816 861.866667c-11.835733 0-23.620267-3.584-34.594133-9.9584-2.6112-1.792-77.2096-78.549333-149.998934-95.7696-48.2304-11.690667-100.1216-13.5424-125.585066-13.5424-16.349867 0-26.368 0.9472-27.281067 0.9472h-3.6096c-16.384 0-30.976-5.4784-42.760533-16.273067A57.5744 57.5744 0 0 1 110.933333 683.861333v-149.930666c0-552.832 377.608533-624.162133 393.045334-626.901334 3.669333-0.896 7.3216-0.896 10.9312-0.896 3.6096 0 7.3216 0 10.9312 0.896 16.341333 2.730667 395.758933 74.069333 395.758933 626.901334V683.861333c0 16.273067-7.3216 32.554667-19.0976 43.409067h-0.0512zM762.325333 513.1264L501.179733 262.0416c-1.809067-2.730667-3.6096-5.469867-6.3744-7.261867a38.7584 38.7584 0 0 0-27.272533-10.8032 42.496 42.496 0 0 0-28.219733 10.8032 21.9136 21.9136 0 0 0-5.461334 7.261867L293.76 396.6464a35.8144 35.8144 0 0 0-10.922667 25.736533c0 9.685333 3.933867 18.9696 10.922667 25.728 14.5408 14.4384 39.108267 14.4384 53.649067 0l120.1152-114.730666 241.152 231.261866c15.445333 14.4384 39.099733 14.4384 53.640533 0a34.440533 34.440533 0 0 0 11.605333-25.762133c0-9.8304-4.215467-19.2-11.605333-25.7536z"  horiz-adv-x="1024" />

    
    <glyph glyph-name="icon_correct" unicode="&#58961;" d="M882.234 676.305c18.742 18.75 49.134 18.755 67.883 0.013 18.56-18.554 18.752-48.527 0.569-67.316l-0.557-0.566-514.182-514.37c-18.546-18.554-48.504-18.754-67.296-0.59l-0.566 0.557-293.818 293.37c-18.76 18.731-18.783 49.123-0.052 67.883 18.543 18.572 48.516 18.78 67.316 0.608l0.566-0.556 259.87-259.475 480.267 480.442z"  horiz-adv-x="1024" />

    
    <glyph glyph-name="jilu2" unicode="&#58887;" d="M239.616 73.216c-2.56 0-5.12 0.512-8.704 2.048-9.728 3.584-14.848 14.336-11.264 24.064 19.968 59.904 81.408 205.824 89.088 221.184 148.48 296.448 305.664 431.104 561.152 480.256 7.68 1.536 15.36-2.048 19.456-8.704 4.096-6.656 3.584-14.848-1.024-21.504L767.488 609.28c-6.656-8.704-8.704-20.48-6.144-31.232l16.384-60.928c5.632-20.48 2.048-42.496-10.24-60.416-11.776-17.92-30.72-29.696-52.224-32.256l-83.968-10.24c-14.848-2.048-27.136-12.8-30.72-27.136 5.632-31.232-9.216-62.464-36.864-75.776-14.336-6.656-29.696-9.216-45.056-6.144l-74.752 13.312c-11.264 2.048-23.04-2.048-30.72-10.752L286.72 164.864c-2.56-6.656-15.36-39.424-22.528-57.344-2.56-6.656-5.12-12.8-7.168-17.408-0.512-1.024-1.024-2.048-1.024-3.584h-0.512c-4.608-8.704-9.216-13.312-15.872-13.312zM827.904 752.64C611.84 698.368 477.184 571.904 343.04 303.616c-2.048-4.096-7.68-17.408-15.36-35.84L385.024 332.8c16.384 18.432 41.472 27.136 65.536 23.04l74.752-13.312c7.68-1.536 15.36-0.512 22.016 3.072 12.8 6.144 19.456 22.016 15.872 36.864-0.512 2.56-0.512 5.12-0.512 7.168 5.12 32.256 31.232 57.856 64 61.952l83.968 10.24c10.24 1.536 19.456 7.168 25.6 15.872 5.632 8.704 7.68 19.456 5.12 29.696L724.992 568.32c-6.144 22.016-1.536 45.056 12.288 63.488L827.904 752.64z m-501.76-440.32z m109.568-357.376c-32.768 0-49.664 20.48-61.952 35.328-11.776 14.336-18.944 21.504-32.768 21.504-14.336 0-20.992-7.168-32.768-21.504-12.288-14.848-29.184-35.328-61.952-35.328s-49.664 20.48-61.952 35.328c-11.776 14.336-18.944 21.504-32.768 21.504-10.24 0-18.944 8.704-18.944 18.944s8.704 18.944 18.944 18.944c32.768 0 49.664-20.48 61.952-35.328 11.776-14.336 18.944-21.504 32.768-21.504 14.336 0 20.992 7.168 32.768 21.504 12.288 14.848 29.184 35.328 61.952 35.328s49.664-20.48 61.952-35.328c11.776-14.336 18.944-21.504 32.768-21.504 10.24 0 18.944-8.704 18.944-18.944s-8.192-18.944-18.944-18.944z"  horiz-adv-x="1024" />

    
    <glyph glyph-name="lunkuohua2_yonghu" unicode="&#58964;" d="M625.398519 323.697778c-57.457778 0-111.407407 22.376296-151.988149 62.957037-40.580741 40.580741-62.957037 94.625185-62.957037 151.988148 0 57.457778 22.376296 111.407407 62.957037 151.988148 40.580741 40.580741 94.625185 62.957037 151.988149 62.957037s111.407407-22.376296 151.988148-62.957037c40.580741-40.580741 62.957037-94.625185 62.957037-151.988148 0-57.457778-22.376296-111.407407-62.957037-151.988148-40.580741-40.580741-94.625185-62.957037-151.988148-62.957037z m0 373.001481c-87.134815 0-158.056296-70.921481-158.056297-158.056296s70.921481-158.056296 158.056297-158.056296 158.056296 70.921481 158.056296 158.056296-70.921481 158.056296-158.056296 158.056296zM317.62963 25.315556c-15.739259 0-28.444444 12.705185-28.444445 28.444444 0 44.088889 8.628148 86.945185 25.694815 127.241481 16.497778 38.968889 40.011852 73.860741 70.068148 103.917038 30.056296 30.056296 64.948148 53.57037 103.917037 70.068148 40.296296 17.066667 83.152593 25.694815 127.241482 25.694814 15.739259 0 28.444444-12.705185 28.444444-28.444444s-12.705185-28.444444-28.444444-28.444444c-148.859259 0-269.937778-121.078519-269.937778-269.937778-0.094815-15.834074-12.8-28.539259-28.539259-28.539259zM933.072593 25.315556c-15.739259 0-28.444444 12.705185-28.444445 28.444444 0 45.605926-11.567407 90.737778-33.564444 130.37037-10.334815 18.583704-22.85037 36.02963-37.262223 51.768889-11.757037 12.894815-24.936296 24.651852-38.968888 35.081482-46.648889 34.512593-102.115556 52.717037-160.237037 52.717037-15.739259 0-28.444444 12.705185-28.444445 28.444444s12.705185 28.444444 28.444445 28.444445c70.447407 0 137.576296-22.091852 194.085925-63.810371 16.971852-12.515556 32.805926-26.832593 47.122963-42.382222 17.445926-19.057778 32.616296-40.106667 45.037037-62.672593 26.548148-48.071111 40.580741-102.684444 40.580741-157.961481 0.094815-15.739259-12.61037-28.444444-28.349629-28.444444zM243.768889 274.868148c-82.868148 0-150.281481 67.413333-150.281482 150.281482S160.900741 575.525926 243.768889 575.525926s150.281481-67.413333 150.281481-150.281482-67.413333-150.376296-150.281481-150.376296z m0 243.768889c-51.484444 0-93.392593-41.908148-93.392593-93.392593s41.908148-93.392593 93.392593-93.392592 93.392593 41.908148 93.392592 93.392592-41.813333 93.392593-93.392592 93.392593zM42.666667 79.928889c-15.739259 0-28.444444 12.705185-28.444445 28.444444 0 59.638519 23.22963 115.768889 65.422222 157.961482s98.322963 65.422222 157.961482 65.422222c15.739259 0 28.444444-12.705185 28.444444-28.444444s-12.705185-28.444444-28.444444-28.444445C145.825185 274.868148 71.111111 200.154074 71.111111 108.373333c0-15.739259-12.705185-28.444444-28.444444-28.444444z"  horiz-adv-x="1024" />

    
    <glyph glyph-name="correct_2" unicode="&#58956;" d="M512 768c211.74 0 384-172.26 384-384S723.74 0 512 0 128 172.26 128 384s172.26 384 384 384m0 64C264.58 832 64 631.42 64 384s200.58-448 448-448 448 200.58 448 448S759.42 832 512 832zM750 518.16a32 32 0 0 1-45.26 0l-248.9-248.9-113.21 113.16a32 32 0 0 1-45.26-45.25l135.77-135.76a32 32 0 0 1 45.26 0L750 472.9a32 32 0 0 1 0 45.26z"  horiz-adv-x="1024" />

    
    <glyph glyph-name="dongtaigonggao" unicode="&#58896;" d="M1141.133-128H112.744C50.72-128 0-77.322 0-15.36V783.36C0 845.302 50.74 896 112.724 896h1028.388c62.046 0 112.766-50.678 112.766-112.64v-798.72c0-61.962-50.74-112.64-112.745-112.64z m56.362 911.36a56.424 56.424 0 0 1-56.362 56.32H112.744a56.424 56.424 0 0 1-56.403-56.32v-798.678a56.424 56.424 0 0 1 56.362-56.32H1141.09a56.424 56.424 0 0 1 56.383 56.32V783.339z m-132.702-653.75H829.377a30.553 30.553 0 0 0-30.573 30.51c0 16.865 13.688 30.511 30.573 30.511h235.416c16.885 0 30.574-13.646 30.574-30.51 0-16.845-13.689-30.512-30.574-30.512z m0 151.802H829.377a30.553 30.553 0 0 0-30.573 30.51c0 16.886 13.688 30.554 30.573 30.554h235.416a30.553 30.553 0 0 0 0-61.043z m0 156.38H829.377a30.553 30.553 0 0 0-30.573 30.531c0 16.865 13.688 30.511 30.573 30.511h235.416c16.885 0 30.574-13.646 30.574-30.51 0-16.865-13.689-30.512-30.574-30.512z m0 151.802H829.377a30.553 30.553 0 0 0-30.573 30.511c0 16.865 13.688 30.532 30.573 30.532h235.416c16.885 0 30.574-13.667 30.574-30.511 0-16.865-13.689-30.532-30.574-30.532zM699.496 368.473h-105.45a21.692 21.692 0 0 0-21.672 21.713v6.792c0 11.974 9.718 21.734 21.671 21.734h105.451c11.954 0 21.65-9.76 21.65-21.734v-6.792c0-12.017-9.696-21.734-21.65-21.734z m-122.503 128.46c-8.088-6.813-19.185-4.326-24.785 5.517l-3.156 5.621c-5.6 9.864-3.573 23.406 4.514 30.219l86.685 72.996c8.108 6.813 19.184 4.326 24.785-5.538l3.197-5.58c5.58-9.884 3.553-23.405-4.535-30.239l-86.705-72.996z m-24.806-212.616c5.6 9.864 16.718 12.33 24.785 5.517l86.705-72.997c8.067-6.813 10.115-20.333 4.535-30.218l-3.197-5.58c-5.6-9.864-16.677-12.33-24.785-5.517l-86.685 72.997c-8.066 6.833-10.114 20.354-4.514 30.218l3.135 5.58z m-97.343-104.49c-33.896 25.015-103.006 64.387-150.841 99.495l-0.063 0.021c-0.564 0.355-1.129 2.299-1.672 2.633-5.851 3.281-8.38 12.267-39.957 12.33h-62.15c-16.698 0-25.747 8.255-25.747 25.015V468.24c0 16.739 9.885 24.158 25.747 24.158h61.879c31.744 0 34.335 9.09 40.207 12.35 0.544 0.335 1.129 2.3 1.672 2.634l0.063 0.02c49.402 35.109 118.031 71.66 150.841 97.698 9.927 7.9 44.158 22.78 44.158-23.781v-375.704c0-46.54-33.939-33.311-44.137-25.788z"  horiz-adv-x="1253" />

    
    <glyph glyph-name="baobiao" unicode="&#59249;" d="M153.6 742.4h665.6a51.2 51.2 0 0 0 51.2-51.2v-716.8a51.2 51.2 0 0 0-51.2-51.2H153.6a51.2 51.2 0 0 0-51.2 51.2V691.2a51.2 51.2 0 0 0 51.2 51.2zM256 281.6v-204.8h51.2V281.6H256z m204.8-51.2v-153.6H512V230.4h-51.2zM665.6 384v-307.2h51.2V384h-51.2z m-178.33-9.216l250.266 148.48-26.112 44.032-215.654-128-113.408 116.02-155.904-103.937 28.364-42.598 120.576 80.384L487.27 374.733zM921.6 25.6V742.4a51.2 51.2 0 0 1-51.2 51.2H204.8V844.8h665.6a102.4 102.4 0 0 0 102.4-102.4v-716.8h-51.2z"  horiz-adv-x="1024" />

    


  </font>
</defs>
</svg>
